<svg width="255" height="190" viewBox="0 0 255 190" fill="none" xmlns="http://www.w3.org/2000/svg">
<g opacity="0.15" filter="url(#filter0_f_3746_5064)" style="mix-blend-mode:multiply">
<path d="M238.801 44.8701L238.803 44.8695L238.8 44.8709L178.14 176.081L110.468 116.347L70.6953 138.5L66.0612 85.1213L238.791 44.8722L238.802 44.8676L238.801 44.8701ZM66.0596 85.1202L18.222 65.0003L238.802 44.8676L66.0596 85.1202Z" fill="#B63FFF"/>
</g>
<path d="M70.6953 107.477L66.0609 54.097L238.803 13.8449L70.6953 107.477Z" fill="#B63FFF"/>
<path d="M97.8007 74.1409L238.803 13.8444L70.6948 107.476L97.8007 74.1409Z" fill="#9133CC"/>
<path d="M66.06 54.0963L18.2221 33.9767L238.802 13.8442L178.139 145.057L97.8003 74.1407L238.802 13.8442L66.06 54.0963Z" fill="#D38CFF"/>
<path d="M66.06 54.0963L18.2221 33.9767L238.802 13.8442L178.139 145.057L97.8003 74.1407L238.802 13.8442L66.06 54.0963Z" fill="url(#paint0_radial_3746_5064)" fill-opacity="0.2"/>
<defs>
<filter id="filter0_f_3746_5064" x="6.22217" y="32.8672" width="244.581" height="155.215" filterUnits="userSpaceOnUse" color-interpolation-filters="sRGB">
<feFlood flood-opacity="0" result="BackgroundImageFix"/>
<feBlend mode="normal" in="SourceGraphic" in2="BackgroundImageFix" result="shape"/>
<feGaussianBlur stdDeviation="6" result="effect1_foregroundBlur_3746_5064"/>
</filter>
<radialGradient id="paint0_radial_3746_5064" cx="0" cy="0" r="1" gradientUnits="userSpaceOnUse" gradientTransform="translate(236.969 7.94231) rotate(148.875) scale(164.789 223.643)">
<stop stop-color="white"/>
<stop offset="0.9999" stop-color="white" stop-opacity="0"/>
<stop offset="1" stop-opacity="0"/>
<stop offset="1" stop-color="white" stop-opacity="0"/>
</radialGradient>
</defs>
</svg>
